<?xml version="1.0" encoding="utf-8"?>
<!-- Generator: Adobe Illustrator 22.0.0, SVG Export Plug-In . SVG Version: 6.00 Build 0)  -->
<svg version="1.1" id="Layer_1" xmlns="http://www.w3.org/2000/svg" xmlns:xlink="http://www.w3.org/1999/xlink" x="0px" y="0px"
	 viewBox="0 0 1156.1 296.4" style="enable-background:new 0 0 1156.1 296.4;" xml:space="preserve">
<style type="text/css">
	.st0{fill:#363636;enable-background:new    ;}
	.st1{opacity:0.75;enable-background:new    ;}
	.st2{opacity:0.75;}
</style>
<title>idf-logo-full-texttry</title>
<path class="st0" d="M149.5,2.9C69.6,2.9,5.1,67.4,5.1,147.3s64.5,144.5,144.4,144.5s144.4-64.5,144.4-144.4S229.4,2.9,149.5,2.9z
	 M149.5,283.4c-75,0-136.1-61-136.1-136.1s61-136.1,136.1-136.1s136.1,61,136.1,136.1S224.6,283.4,149.5,283.4z"/>
<path class="st0" d="M96.4,55.6c-50.5,0-91.8,41.3-91.8,91.8s41.3,91.7,91.8,91.7s91.8-41.3,91.8-91.8S147.3,55.6,96.4,55.6z
	 M96.4,230.7c-46.1,0-83.4-37.3-83.4-83.4s37.3-83.4,83.4-83.4s83.4,37.3,83.4,83.4S142.5,230.7,96.4,230.7z"/>
<path class="st0" d="M127.6,87.6c-32.9,0-59.7,26.8-59.7,59.7S94.7,207,127.6,207s59.7-26.8,59.7-59.7S160.5,87.6,127.6,87.6z
	 M127.6,199.5c-28.5,0-51.8-23.3-51.8-51.8s23.3-51.8,51.8-51.8s51.8,23.3,51.8,51.8S156.1,199.5,127.6,199.5z"/>
<g>
	<g>
		<g>
			<path class="st1" d="M379.7,149v42.3c0,3.7-2.5,5.2-5.3,5.2c-2.9,0-5.3-1.5-5.3-5.2v-88c0-3.6,2.4-5.3,5.3-5.3
				c2.8,0,5.3,1.8,5.3,5.3v36.6h55.2v-36.6c0-3.6,2.4-5.3,5.2-5.3s5.5,1.8,5.5,5.3v88c0,3.7-2.7,5.2-5.5,5.2s-5.2-1.5-5.2-5.2V149
				H379.7L379.7,149z"/>
			<path class="st1" d="M506.8,149.7c0-7.9-4.2-12.1-14.4-12.1c-10.4,0-14.2,4.3-16.7,11.1c-0.6,1.9-2.4,3.1-4.3,3.1
				c-2.7,0-5.1-1.5-5.1-4.5c0-0.5,0.1-1.3,0.3-1.8c2.5-8,10-15.6,25.9-15.6c14.6,0,23.5,4.8,23.5,20v27.7c0,5.1,0.6,8.6,1.9,11.1
				c0.5,1.3,0.8,2.4,0.8,3.3c0,2.5-3.1,4.5-5.6,4.5c-1.4,0-2.8-0.8-3.9-2.7c-0.9-1.8-1.3-3.6-1.8-5.7c-5.6,5.3-12.2,9.3-23.8,9.3
				c-12.3,0-20.7-6.7-20.7-18.9c0-11.4,6.6-17.7,20.3-21.4c10-2.7,17.3-3.2,23.5-3.8L506.8,149.7L506.8,149.7z M506.8,160.7
				c-6.2,0.5-13.6,1.3-22.4,4.1c-7.2,2.3-12.1,6.4-12.1,13.6c0,6.9,5.2,11.2,13.1,11.2c8,0,15.1-3.6,21.4-10.7V160.7z"/>
			<path class="st1" d="M735,134c-1.9-7.1-3.3-15.6-5.2-23.6c-1.7,8.3-3.1,16-5.2,24.2l-14.2,54.7c-1.4,5.5-4.7,7.2-8.6,7.2
				c-3.9,0-6.6-1.8-8.1-7.2l-23-84c-0.3-0.9-0.4-1.7-0.4-2.3c0-3.2,2.7-4.8,5.7-4.8c2.3,0,4.1,1.1,5,4.3l16,61.8
				c1.9,7.4,3.7,15.5,5.1,22.4c1.8-7.1,3.2-14.7,5.2-22.4l15.9-60.9c1-3.9,3.7-5.2,6.7-5.2c3.1,0,5.7,1.3,6.7,5.1l16.1,61.2
				c1.9,7,3.6,15.4,5.1,22.3c1.9-7.1,3.6-15.1,5.5-22.4l15.9-61.8c0.9-3.2,2.8-4.3,5.1-4.3c2.8,0,5.5,1.8,5.5,4.8
				c0,0.6-0.1,1.5-0.4,2.3l-23.1,84c-1.5,5.5-4.5,7.2-8.5,7.2c-3.7,0-6.7-1.9-8.1-7.2L735,134z"/>
			<path class="st1" d="M1002.9,191.3c0,3.7-2.4,5.2-5.2,5.2c-2.9,0-5.3-1.5-5.3-5.2v-88c0-3.6,2.4-5.3,5.3-5.3
				c2.8,0,5.2,1.8,5.2,5.3V136c0,3.8-0.3,8.9-0.4,13.7c3.6-3.7,6.4-6.7,8.9-9.4l37.8-40.3c1.3-1.4,2.8-2,4.2-2
				c2.7,0,5.5,2.4,5.5,5.2c0,1.3-0.5,2.5-1.8,3.8l-30.9,31.5l35.7,49.5c0.8,1,1.1,2.3,1.1,3.6c0,2.9-2.4,5-5.3,5
				c-1.7,0-3.2-0.6-4.3-2.3l-33.9-49l-16.5,16.1L1002.9,191.3L1002.9,191.3z"/>
			<path class="st1" d="M1106.2,149.5c-20.9-4.7-29.5-11.2-29.5-27.6c0-14.9,12.2-24.7,31.4-24.7c17,0,28.4,7.5,31.7,21.9
				c0.1,0.6,0.3,1.4,0.3,1.9c0,3.2-2.3,5-5.3,5c-2.5,0-4.6-1-5.2-4.1c-2.4-11.1-9.2-15.8-21.2-15.8c-12.7,0-21.1,5.1-21.1,15.8
				c0,10.8,6.6,14.8,23,18.2l4.5,1c20.9,4.8,28.6,12.3,28.6,29.2c0,16-13.5,27-33.9,27c-22.3,0-32.4-11.7-34.8-23
				c-0.3-1.3-0.5-2.9-0.5-3.6c0-3.3,2.4-4.8,5.5-4.8c2.7,0,4.8,0.9,5.3,4.3c1.4,11.7,10.3,18.2,24.5,18.2c13.9,0,23.5-6.7,23.5-18.1
				c0-11.4-5.8-16.1-22.1-19.8L1106.2,149.5z"/>
		</g>
		<g class="st2">
			<path d="M616.2,146.9c0-28.9-13.5-49.7-41.7-49.7c-27.7,0-42.1,20.9-42.1,49.7c0,25.2,10.8,44.9,32.2,49.4
				c1.4,0.3,2.6-0.8,2.6-2.2v-4.9c0-1-0.6-1.8-1.6-2.1c-14.5-4.1-22.9-18.7-22.9-40.2c0-25.6,12.1-40.7,31.7-40.7
				c20.1,0,31.3,15.1,31.3,40.7c0,21.6-8.1,36.3-22.9,40.2c-0.9,0.3-1.6,1.1-1.6,2.1v4.9c0,1.4,1.3,2.4,2.6,2.2
				C605.6,192,616.2,172.2,616.2,146.9z"/>
		</g>
		<g class="st2">
			<path d="M883.9,146.9c0-28.9-13.5-49.7-41.7-49.7c-27.7,0-42.1,20.9-42.1,49.7c0,25,10.7,44.7,31.9,49.3c1.5,0.3,3-0.9,3-2.4
				v-4.4c0-1.1-0.7-2.1-1.8-2.4c-14.4-4.1-22.7-18.8-22.7-40.1c0-25.6,12.1-40.7,31.7-40.7c20.1,0,31.3,15.1,31.3,40.7
				c0,21.5-8.1,36.1-22.7,40.2c-1.1,0.3-1.8,1.3-1.8,2.4v4.4c0,1.6,1.4,2.7,3,2.4C873.5,191.8,883.9,172.1,883.9,146.9z"/>
		</g>
		<path class="st1" d="M976.4,188.8l-23.1-38.7c12.8-3.9,18.9-13.2,18.9-25c0-15.5-8.5-26.3-30.8-26.3h-23.7c-0.8,0-1.6,0-2.3,0.1
			v9.7c1-0.7,2.4-1,4.3-1h21.6c14.9,0,20.3,7.5,20.3,17.5c0,9.9-5.7,17.9-20.6,17.9h-25.7v8.6H943l23.9,42.3
			c1.1,1.8,2.8,2.5,4.7,2.5c2.8,0,5.5-1.9,5.5-5C977.2,190.7,977,189.7,976.4,188.8z"/>
	</g>
</g>
</svg>
